# xmcd
#
# Track frame offsets: 
#        150
#        24454
#        43153
#        69953
#        82482
#        100004
#        120891
#        143173
#        164643
#        191342
#        207686
#        228026
#        243196
#        269109
#        284129
#
# Disc length: 4139 seconds
#
# Revision: 0
# Processed by: cddbd v1.5.2PL0 Copyright (c) Steve Scherf et al.
# Submitted via: ExactAudioCopy v1.0b1
#
DISCID=de10290f
DTITLE=Tribute To Ray Charles - Tribute To Ray Charles (koncert live -
DTITLE=Kościół Św. Jana w Gdańsku)
DYEAR=2004
DGENRE=Gospel
TTITLE0=Georgia
TTITLE1=Lift Every Voice And Sing
TTITLE2=Sinner's Prayer
TTITLE3=Hit The Road Jack
TTITLE4=Don't Let The Sun Catch You Crying
TTITLE5=Don't Change On Me
TTITLE6=Makin' Whoppe
TTITLE7=Heaven Help Us All
TTITLE8=Route 66
TTITLE9=Crying Time
TTITLE10=Help Me God
TTITLE11=Unchain My Heart
TTITLE12=I Had A Dream
TTITLE13=America, The Beauttifull
TTITLE14=I Can't Stop Loving You
EXTD=
EXTT0=
EXTT1=
EXTT2=
EXTT3=
EXTT4=
EXTT5=
EXTT6=
EXTT7=
EXTT8=
EXTT9=
EXTT10=
EXTT11=
EXTT12=
EXTT13=
EXTT14=
PLAYORDER=
